<?xml version="1.0" encoding="utf-8" ?><svg xmlns="http://www.w3.org/2000/svg" xmlns:xlink="http://www.w3.org/1999/xlink" width="1024" height="1024" viewBox="0 0 1024 1024"><path fill="#727172" d="M511.532 276.788C516.54 282.579 519.561 290.16 523.865 296.397C532.686 309.178 540.02 323.392 549.662 335.468C553.225 339.93 550.954 340.764 555.594 344.792C559.622 348.288 562.963 356.906 565.701 361.559C566.963 363.633 578.21 379.732 578.344 381.14L577.93 380.751C601.502 421.482 629.287 460.547 654.062 500.63C657.941 506.904 662.797 512.16 666.826 518.439L666.727 518.221C671.236 523.887 676.404 531.284 680.338 537.43C681.016 538.023 681.116 538.361 681.607 539.134L682.038 539.796C679.52 540.016 677.268 540.1 674.757 540.204C667.967 540.386 656.945 540.536 650.365 539.986C647.754 540.196 643.839 539.982 641.245 539.55C639.923 539.647 634.677 539.659 633.762 539.158C630.265 537.243 635.112 535.327 634.855 535.703C634.335 531.694 630.463 532.566 627.175 532.389C625.138 532.597 620.68 532.511 618.678 532.127C605.505 535.603 618.486 538.914 608.166 539.065C605.866 539.511 596.401 539.704 593.728 539.583C587.827 540.244 575.933 539.74 569.635 539.56C568.456 538.027 567.713 536.94 566.421 535.481C564.946 534.774 560.327 527.594 558.329 525.131L558.343 525.335C557.354 523.887 555.979 522.064 555.347 520.481L555.72 520.75C550.481 509.657 536.403 489.003 529.384 477.297C526.012 471.695 522.734 466.036 519.552 460.324C517.483 456.626 514.744 451.131 512.134 448.064C505.371 456.654 492.246 479.812 486.147 489.793L471.937 512.842C469.252 517.194 465.114 523.576 463.057 528.073C464.056 527.567 464.754 526.457 465.536 525.511C464.853 527.997 437.492 571.821 434.332 576.073C426.473 589.641 417.464 602.827 408.948 616.031L408.448 615.41C414.427 604.614 408.238 607.817 408.253 600.215C408.283 584.79 408.042 569.224 408.331 553.807C408.767 548.563 408.52 540.666 408.653 535.207C409.047 519.011 408.48 502.678 408.602 486.472L408.99 452.709C409.027 449.821 409.654 443.777 408.335 441.553C406.723 444.116 402.872 451.584 401.816 452.934L400.992 452.967C400.911 450.013 402.495 452.116 402.342 447.43C403.24 445.491 416.016 426.261 417.718 423.571L432.772 399.332C435.057 395.639 438.28 390.075 440.734 386.787C442.028 384.277 446.269 377.769 448.051 375.499C458.206 359.048 469.268 344.324 479.625 327.862C486.223 317.344 492.758 306.786 499.229 296.189C502.819 290.336 507.55 282.139 511.532 276.788Z"/><path fill="#090909" d="M408.335 441.553C408.337 439.167 435.57 396.861 437.981 395.874L438.572 396.422C438.297 397.57 436.907 399.181 436.884 398.981C439.241 418.99 437.89 439.157 438.235 459.228C438.477 473.261 438.882 486.997 439.066 501.008C439.19 523.557 436.904 546.188 437.308 568.773C435.841 571.133 434.822 572.569 433.839 575.196L434.332 576.073C426.473 589.641 417.464 602.827 408.948 616.031L408.448 615.41C414.427 604.614 408.238 607.817 408.253 600.215C408.283 584.79 408.042 569.224 408.331 553.807C408.767 548.563 408.52 540.666 408.653 535.207C409.047 519.011 408.48 502.678 408.602 486.472L408.99 452.709C409.027 449.821 409.654 443.777 408.335 441.553Z"/><path fill="#CBC9CC" d="M627.175 532.389C633.341 530.462 651.303 532.676 658.501 532.258C660.559 532.138 673.802 531.895 674.638 533.706C675.452 533.851 676.304 533.624 677.025 534.109C677.48 535.549 672.759 535.365 671.985 535.46C674.014 535.726 676.407 535.422 677.832 536.778C678.504 537.418 679.47 537.348 680.338 537.43C681.016 538.023 681.116 538.361 681.607 539.134L682.038 539.796C679.52 540.016 677.268 540.1 674.757 540.204C667.967 540.386 656.945 540.536 650.365 539.986C647.754 540.196 643.839 539.982 641.245 539.55C639.923 539.647 634.677 539.659 633.762 539.158C630.265 537.243 635.112 535.327 634.855 535.703C634.335 531.694 630.463 532.566 627.175 532.389Z"/><defs><linearGradient id="gradient_0" gradientUnits="userSpaceOnUse" x1="679.47455" y1="535.4942" x2="655.61621" y2="539.66473"><stop offset="0" stop-color="#4F4E4E"/><stop offset="1" stop-color="#919193"/></linearGradient></defs><path fill="url(#gradient_0)" d="M651.301 535.599C657.873 535.481 665.613 535.73 671.985 535.46C674.014 535.726 676.407 535.422 677.832 536.778C678.504 537.418 679.47 537.348 680.338 537.43C681.016 538.023 681.116 538.361 681.607 539.134L682.038 539.796C679.52 540.016 677.268 540.1 674.757 540.204C667.967 540.386 656.945 540.536 650.365 539.986C652.297 539.468 653.357 539.715 655.046 539.321C655.436 539.23 655.414 536.465 655.055 536.357C653.865 535.999 652.654 536.002 651.301 535.599Z"/><path fill="#B2B0B1" d="M641.245 539.55C640.336 538.097 640.029 539.284 638.906 538.839C638.066 534.709 640.59 538.088 643.819 535.802C644.219 535.519 650.448 535.511 651.301 535.599C652.654 536.002 653.865 535.999 655.055 536.357C655.414 536.465 655.436 539.23 655.046 539.321C653.357 539.715 652.297 539.468 650.365 539.986C647.754 540.196 643.839 539.982 641.245 539.55Z"/><path fill="#D6D5D6" d="M583.679 532.406C586.286 532.049 617.099 531.711 618.678 532.127C605.505 535.603 618.486 538.914 608.166 539.065C605.866 539.511 596.401 539.704 593.728 539.583C587.827 540.244 575.933 539.74 569.635 539.56C568.456 538.027 567.713 536.94 566.421 535.481C571.529 535.309 576.587 535.661 581.723 535.462C581.44 535.395 581.156 535.331 580.874 535.261C579.899 535.018 579.03 534.826 578.012 534.845C577.756 534.85 577.464 534.954 577.243 534.825C577.269 534.771 577.295 534.718 577.321 534.665C577.393 534.673 578.074 533.594 578.189 533.561C580.291 532.954 581.457 533.351 583.679 532.406Z"/><path fill="#727172" d="M566.421 535.481C571.529 535.309 576.587 535.661 581.723 535.462C583.86 535.574 585.849 535.558 587.988 535.49C588.384 536.805 588.455 537.857 587.93 539.13L587.937 539.195C588.181 539.34 588.019 539.268 588.454 539.318L588.333 539.295C590.148 539.294 591.924 539.392 593.728 539.583C587.827 540.244 575.933 539.74 569.635 539.56C568.456 538.027 567.713 536.94 566.421 535.481Z"/><path fill="#B2B0B1" d="M587.988 535.49C590.368 535.281 609.468 536.017 611.196 536.809C612.192 538.564 609.54 538.541 608.166 539.065C605.866 539.511 596.401 539.704 593.728 539.583C591.924 539.392 590.148 539.294 588.333 539.295L588.454 539.318C588.019 539.268 588.181 539.34 587.937 539.195L587.93 539.13C588.455 537.857 588.384 536.805 587.988 535.49Z"/><path fill="#B2B0B1" d="M566.421 535.481C566.084 534.492 565.161 532.971 565.122 532.527C567.249 531.77 567.186 532.964 568.75 532.676C572.853 531.921 579.625 532.141 583.679 532.406C581.457 533.351 580.291 532.954 578.189 533.561C578.074 533.594 577.393 534.673 577.321 534.665C577.295 534.718 577.269 534.771 577.243 534.825C577.464 534.954 577.756 534.85 578.012 534.845C579.03 534.826 579.899 535.018 580.874 535.261C581.156 535.331 581.44 535.395 581.723 535.462C576.587 535.661 571.529 535.309 566.421 535.481Z"/><path fill="#5F5D5E" d="M448.051 375.499C449.351 376.935 450.69 373.294 451.487 371.896C451.583 371.877 451.679 371.859 451.775 371.84C452.758 373.548 440.801 390.868 439.239 391.402C437.733 390.807 442.107 388.016 440.734 386.787C442.028 384.277 446.269 377.769 448.051 375.499Z"/><path fill="#D6D5D6" d="M507.668 285.046C509.004 282.626 509.96 280.994 511.492 278.68C520.257 293.213 529.86 307.94 538.918 322.387L589.815 403.63C593.196 409.005 608.877 430.792 610.221 435.115C615.449 442.139 621.024 451.729 626.149 459.184C629.22 463.649 635.926 473.754 638.264 478.301C640.058 480.381 650.296 496.66 652.203 499.898C658.08 509.874 666.441 521.254 671.946 530.986C663.703 531.111 643.351 531.845 635.979 531.08C633.452 531.323 608.197 531.386 606.201 531.079C596.024 532.005 575.364 531.368 564.704 530.831C558.886 522.958 512.785 446.198 511.793 445.586C509.886 450.933 498.898 465.965 495.659 472.117C494.348 474.607 487.995 484.674 486.367 486.984C481.73 495.143 476.48 502.912 471.543 510.875C470.753 512.148 466.026 519.508 465.673 520.403C464.028 523.755 455.537 537.595 453.181 540.405L452.785 541.199C452.351 542.125 451.768 542.886 451.145 543.692L450.802 544.172C449.577 545.75 448.219 548.566 446.875 550.409C446.458 551.539 446.595 551.268 445.99 552.233L445.299 552.161L444.886 550.344C444.764 551.401 444.762 551.386 444.508 552.379L444.054 552.001C444.02 544.692 445.398 540.035 445.74 533.543C446.054 523.59 446.624 517.951 446.719 507.726C447.083 468.473 446.416 425.45 446.069 386.494C446.054 384.823 467.368 349.982 468.837 348.627C469.902 345.528 481.056 327.642 483.213 324.62C483.699 323.416 487.836 316.719 488.838 315.165C494.488 306.405 501.565 293.164 507.668 285.046Z"/><defs><linearGradient id="gradient_1" gradientUnits="userSpaceOnUse" x1="450.2767" y1="444.8075" x2="459.39191" y2="444.69653"><stop offset="0" stop-color="#7A7A7A"/><stop offset="1" stop-color="#A5A5A5"/></linearGradient></defs><path fill="url(#gradient_1)" d="M468.837 348.627C469.515 352.762 453.826 366.678 458.789 377.274C459.598 379.001 459.24 400.7 459.267 404.707L459.769 466.752C459.819 471.943 460.089 511.537 461.497 513.633L461.083 514.582C461.338 516.326 461.079 517.853 461.261 519.424C461.651 519.158 461.607 518.525 461.639 518.132C463.743 518.58 462.111 521.776 461.498 522.86C461.499 522.619 461.5 522.377 461.501 522.136C461.366 522.365 457.437 531.857 460.69 527.021C462.69 524.048 463.073 522.849 465.673 520.403C464.028 523.755 455.537 537.595 453.181 540.405L452.785 541.199C452.351 542.125 451.768 542.886 451.145 543.692L450.802 544.172C449.577 545.75 448.219 548.566 446.875 550.409C446.458 551.539 446.595 551.268 445.99 552.233L445.299 552.161L444.886 550.344C444.764 551.401 444.762 551.386 444.508 552.379L444.054 552.001C444.02 544.692 445.398 540.035 445.74 533.543C446.054 523.59 446.624 517.951 446.719 507.726C447.083 468.473 446.416 425.45 446.069 386.494C446.054 384.823 467.368 349.982 468.837 348.627Z"/><path fill="#969596" d="M446.875 550.409C446.467 545.426 448.957 537.793 449.78 532.842C452.62 530.713 450.367 530.715 451.744 529.585C451.789 529.598 451.833 529.61 451.878 529.623C452.272 530.502 451.645 532.685 452.296 533.121C453.149 532.299 453.123 530.585 453.671 529.532C453.903 529.086 454.12 528.73 454.254 528.245C454.363 527.852 454.346 527.512 454.763 527.323C454.837 527.29 455.113 527.271 455.16 527.165C455.347 526.737 455.47 526.39 455.751 526.023C456.39 525.184 456.777 524.203 457.42 523.4C458.008 522.667 458.553 522.066 458.871 521.165C458.968 520.888 459.051 520.606 459.151 520.33C459.371 519.725 459.523 519.391 459.518 518.753C459.512 517.908 459.45 517.123 459.64 516.298C459.673 516.154 459.727 516.015 459.759 515.871C459.801 515.68 459.932 514.566 460.207 514.412C460.452 514.274 460.959 514.542 461.083 514.582C461.338 516.326 461.079 517.853 461.261 519.424C461.651 519.158 461.607 518.525 461.639 518.132C463.743 518.58 462.111 521.776 461.498 522.86C461.499 522.619 461.5 522.377 461.501 522.136C461.366 522.365 457.437 531.857 460.69 527.021C462.69 524.048 463.073 522.849 465.673 520.403C464.028 523.755 455.537 537.595 453.181 540.405L452.785 541.199C452.351 542.125 451.768 542.886 451.145 543.692L450.802 544.172C449.577 545.75 448.219 548.566 446.875 550.409Z"/><path fill="#727172" d="M451.145 543.692C450.53 541.881 450.822 539.345 453.181 540.405L452.785 541.199C452.351 542.125 451.768 542.886 451.145 543.692Z"/><path fill="#727172" d="M450.745 408.25C451.943 413.66 451.45 427.767 451.525 433.921C451.739 451.506 450.885 470.634 452.72 488.091C453.119 487.611 453.347 487.103 453.611 486.539C454.418 490.612 453.967 496.116 453.627 500.32C453.57 499.122 453.007 491.563 453.085 491.114C452.261 493.576 452.495 504.105 452.5 507.25C452.598 512.543 452.334 516.414 451.943 521.649C451.585 520.744 451.816 509.451 451.771 507.68C450.94 474.511 450.701 441.436 450.745 408.25Z"/><path fill="#EFEFEF" d="M486.367 486.984C485.224 485.666 486.922 484.479 487.995 482.884C490.687 478.882 493.212 474.096 495.916 470.168C495.788 469.293 494.446 468.374 494.374 467.953C494.158 466.703 494.767 462.419 494.961 461.266C495.496 460.433 495.143 456.628 495.275 456.504C498.089 453.867 494.559 454.325 496.266 450.249C496.687 449.243 497.183 445.337 497.451 444.274C497.696 443.301 497.854 440.548 498.977 440.298C499.262 440.437 499.405 440.582 499.607 440.828C499.677 440.913 499.735 441.008 499.807 441.091C500.567 441.968 501.168 442.688 501.567 443.798C501.745 444.293 501.89 444.754 502.182 445.196C502.524 445.714 502.862 446.184 503.029 446.793C503.124 447.139 503.187 447.495 503.304 447.834C503.422 448.174 503.548 448.428 503.609 448.776C503.683 449.197 503.733 449.582 503.887 449.983C504.206 450.816 504.103 451.729 504.485 452.494C504.604 452.732 504.839 452.982 504.669 453.266C504.566 453.438 504.253 453.564 504.317 453.753C504.522 454.356 504.775 454.842 504.78 455.496C504.781 455.643 504.735 455.803 504.798 455.937C504.836 455.914 510.093 447.567 510.128 447.322C510.412 445.314 513.416 441.739 511.793 445.586C509.886 450.933 498.898 465.965 495.659 472.117C494.348 474.607 487.995 484.674 486.367 486.984Z"/><path fill="#EFEFEF" d="M606.201 531.079C607.615 529.573 620.209 531.155 621.24 530.343C621.417 529.539 620.659 529.966 621.225 527.728C621.996 524.678 620.554 519.145 622.008 515.631C622.616 514.162 621.798 509.91 623.773 508.299C627.431 508.003 625.217 528.172 625.279 530.381L625.297 530.38L625.285 530.103L625.325 530.377C627.51 531.066 633.03 529.659 635.979 531.08C633.452 531.323 608.197 531.386 606.201 531.079Z"/><path fill="#EFEFEF" d="M610.221 435.115C615.449 442.139 621.024 451.729 626.149 459.184C629.22 463.649 635.926 473.754 638.264 478.301C636.056 477.668 631.149 467.262 630.315 467.254C629.71 468.869 630.046 470.27 627.761 470.029C625.064 469.814 625.3 467.966 624.157 465.844C623.76 465.107 623.447 462.233 623.245 461.247C622.705 458.607 623.723 458.39 623.955 457.513C623.831 457.047 623.512 456.706 623.232 456.312L621.187 453.319C618.601 449.552 616.235 445.645 613.702 441.819L612.8 440.466C611.335 438.266 610.256 437.642 610.221 435.115Z"/><path fill="#EFEFEF" d="M507.668 285.046C509.03 286.635 504.428 290.515 503.763 292.715C503.485 293.113 503.208 293.512 502.931 293.91C501.447 296.486 499.602 298.877 498.284 301.521C498.18 301.73 498.251 303.725 498.273 303.996C498.602 307.916 496.816 309.239 493.224 310.599C493.065 310.444 492.907 310.29 492.748 310.135C492.704 310.16 484.565 324.118 483.494 325.523C483.322 325.377 483.251 324.776 483.213 324.62C483.699 323.416 487.836 316.719 488.838 315.165C494.488 306.405 501.565 293.164 507.668 285.046Z"/><path fill="#EFEFEF" d="M497.648 361.585C497.823 361.625 499.16 361.881 499.232 361.972C501.519 364.887 501.147 373.215 500.176 376.42C495.804 375.376 496.998 364.668 497.648 361.585Z"/><path fill="#EFEFEF" d="M497.938 424.102C501.854 425.056 500.599 435.614 499.542 438.392C498.253 438.536 498.505 438.328 497.976 437.009L497.682 436.315C496.039 432.522 496.544 427.899 497.938 424.102Z"/><path fill="#EFEFEF" d="M623.512 497.615C625.867 499.269 625.775 504.449 624.768 506.563L624.114 507.959C621.364 504.417 621.962 501.427 623.512 497.615Z"/><path fill="#EFEFEF" d="M623.613 480.632C628.086 483.444 624.526 485.148 624.666 489.027C622.342 490.726 623.47 481.357 623.613 480.632Z"/><defs><linearGradient id="gradient_2" gradientUnits="userSpaceOnUse" x1="802.53613" y1="723.38336" x2="550.88672" y2="556.15131"><stop offset="0" stop-color="#5C5C5D"/><stop offset="1" stop-color="#F6F6F6"/></linearGradient></defs><path fill="url(#gradient_2)" d="M543.268 557.48C548.738 557.544 556.425 557.442 561.698 557.879C574.744 558.003 592.954 558.167 605.741 559.471C607.438 559.247 617.096 559.385 619.271 559.443C625.592 559.613 632.151 559.061 638.278 559.15C642.995 559.762 649.042 559.472 653.881 559.493C658.572 559.512 663.263 559.495 667.954 559.441C672.839 559.7 689.527 558.717 692.361 560.97C694.391 563.641 696.284 566.414 698.031 569.279C698.702 570.371 702.674 576.618 703.195 576.999C704.722 580.132 712.376 591.722 714.488 594.427C714.885 595.418 715.655 596.674 716.366 597.49C717.789 597.734 718.014 598.237 719.329 598.31C720.616 599.757 726.326 608.984 727.6 611.052C730.474 615.718 735.37 622.666 737.874 627.369C734.806 628.407 735.559 623.183 733.014 623.43C736.213 629.17 740.87 636.042 744.505 641.746C752.383 654.118 760.375 666.416 768.479 678.64L771.826 679.706C773.173 681.852 775.333 685.044 776.319 687.268C778.15 689.417 781.643 695.148 783.308 697.738L795.875 717.481C798.381 721.45 805.729 732.523 807.267 735.771L810.069 740.015C808.68 740.912 808.956 740.928 808.938 742.577C807.024 743.4 805.079 743.187 802.897 743.285L803.327 743.544C805.374 744.793 805.993 745.045 808.506 745.47L809.009 745.559C798.756 745.439 788.502 745.428 778.248 745.525C774.716 745.547 764.396 745.855 761.273 745.502C757.326 745.7 754.274 745.689 750.314 745.579C742.918 746.209 731.684 745.869 724.105 745.804C720.6 745.775 703.071 746.059 701.447 744.808C696.898 742.692 693.035 735.16 690.289 730.814C685.448 723.164 680.72 715.444 676.105 707.656C667.922 693.944 659.312 680.404 650.911 666.802C645.29 657.701 639.001 646.661 632.98 638.001C610.722 636.952 583.616 638.177 560.789 638.012C554.754 638.191 548.715 638.213 542.679 638.08C542.227 636.944 541.956 636.001 541.853 634.775C541.298 628.219 541.136 565.664 542.19 562.193C542.588 560.881 543.052 559.564 543.2 558.194C543.226 557.956 543.245 557.718 543.268 557.48Z"/><path fill="#505152" d="M543.268 557.48C548.738 557.544 556.425 557.442 561.698 557.879C557.715 558.174 552.114 558.372 548.277 558.847L548.053 559.245L551.753 559.636L551.978 560.06C549.768 562.199 549.641 564.728 549.741 567.698C550.29 583.988 548.93 601.479 549.864 617.647L550.03 619.281C549.898 620.465 549.715 621.529 549.521 622.701C547.257 625.225 550.33 630.28 547.656 634.703C547.179 633.031 547.453 624.392 547.476 621.996C547.665 602.186 547.309 582.324 547.566 562.52C545.933 565.033 546.831 583.298 546.791 587.724C546.646 603.715 547.036 619.715 546.379 635.717C548.486 636.73 554.144 636.615 556.345 636.194C558.146 637.651 558.417 637.585 560.789 638.012C554.754 638.191 548.715 638.213 542.679 638.08C542.227 636.944 541.956 636.001 541.853 634.775C541.298 628.219 541.136 565.664 542.19 562.193C542.588 560.881 543.052 559.564 543.2 558.194C543.226 557.956 543.245 557.718 543.268 557.48Z"/><path fill="#090909" d="M768.479 678.64L771.826 679.706C773.173 681.852 775.333 685.044 776.319 687.268C778.15 689.417 781.643 695.148 783.308 697.738L795.875 717.481C798.381 721.45 805.729 732.523 807.267 735.771L810.069 740.015C808.68 740.912 808.956 740.928 808.938 742.577C807.024 743.4 805.079 743.187 802.897 743.285C799.059 743.284 794.596 743.225 790.756 743.095C789.394 742.968 788.222 742.86 786.854 742.824C786.588 738.458 785.94 733.94 786.255 729.578C786.391 727.686 786.341 710.564 786.223 710.378L786.134 710.56C785.973 710.161 785.821 709.151 786.149 708.789C786.902 709.983 787.007 709.903 788.271 710.582C786.383 707.203 784.702 704.655 782.65 701.393C782.224 699.749 773.672 687.048 772.099 684.139C771.716 683.806 768.958 679.389 768.479 678.64Z"/><path fill="#5F5D5E" d="M768.479 678.64L771.826 679.706C773.173 681.852 775.333 685.044 776.319 687.268C778.15 689.417 781.643 695.148 783.308 697.738L795.875 717.481C798.381 721.45 805.729 732.523 807.267 735.771L810.069 740.015C808.68 740.912 808.956 740.928 808.938 742.577C808.189 741.339 807.323 740.043 806.626 738.821C800.467 730.582 793.6 717.418 788.271 710.582C786.383 707.203 784.702 704.655 782.65 701.393C782.224 699.749 773.672 687.048 772.099 684.139C771.716 683.806 768.958 679.389 768.479 678.64Z"/><path fill="#727172" d="M556.345 636.194C557.432 635.995 563.613 636.051 565.322 635.98C578.754 636.559 592.359 636.428 605.809 636.616C609.285 636.665 613.436 636.814 616.863 636.589C621.567 636.998 628.418 636.767 633.283 636.745C641.786 649.974 650.166 663.282 658.421 676.667C659.915 679.053 667.751 691.733 669.205 693.133C672.759 699.77 678.323 707.174 682.381 713.748C684.614 717.494 701.364 743.381 701.447 744.808C696.898 742.692 693.035 735.16 690.289 730.814C685.448 723.164 680.72 715.444 676.105 707.656C667.922 693.944 659.312 680.404 650.911 666.802C645.29 657.701 639.001 646.661 632.98 638.001C610.722 636.952 583.616 638.177 560.789 638.012C558.417 637.585 558.146 637.651 556.345 636.194Z"/><defs><linearGradient id="gradient_3" gradientUnits="userSpaceOnUse" x1="580.31512" y1="558.26959" x2="580.17242" y2="560.96503"><stop offset="0" stop-color="#838083"/><stop offset="1" stop-color="#676465"/></linearGradient></defs><path fill="url(#gradient_3)" d="M561.698 557.879C574.744 558.003 592.954 558.167 605.741 559.471C607.517 561.154 610.849 559.687 612.863 560.485C598.724 561.242 579.918 560.632 565.368 560.764C562.433 560.668 559.495 560.652 556.559 560.716C555.231 560.304 553.397 560.205 551.978 560.06L551.753 559.636L548.053 559.245L548.277 558.847C552.114 558.372 557.715 558.174 561.698 557.879Z"/><path fill="#727172" d="M605.741 559.471C607.438 559.247 617.096 559.385 619.271 559.443C625.592 559.613 632.151 559.061 638.278 559.15C642.995 559.762 649.042 559.472 653.881 559.493C658.572 559.512 663.263 559.495 667.954 559.441C672.839 559.7 689.527 558.717 692.361 560.97L691.871 562.239C691.732 562.131 690.692 561.275 690.62 561.272C677.131 560.737 645.57 560.571 634.139 560.659C628.813 560.509 623.484 560.5 618.158 560.634L612.863 560.485C610.849 559.687 607.517 561.154 605.741 559.471Z"/><path fill="#727172" d="M790.756 743.095C794.596 743.225 799.059 743.284 802.897 743.285L803.327 743.544C805.374 744.793 805.993 745.045 808.506 745.47L809.009 745.559C798.756 745.439 788.502 745.428 778.248 745.525C774.716 745.547 764.396 745.855 761.273 745.502C762.552 743.592 765.829 745.518 766.746 744.613L766.734 744.659L765.925 744.482L765.915 744.489C765.15 744.496 762.217 744.635 761.695 744.31L761.687 744.256C763.909 743.158 786.148 743.586 790.756 743.095Z"/><path fill="#1B1A1B" d="M786.854 742.824C786.079 742.85 780.429 742.883 779.876 742.72C781.208 741.632 785.382 743.845 784.681 741.272C783.809 738.052 784.432 734.949 784.25 731.515C783.849 723.961 786.255 715.023 783.781 707.777C783.632 707.341 782.57 706.525 782.522 705.521C782.447 703.961 781.284 703.437 782.283 701.97L782.65 701.393C784.702 704.655 786.383 707.203 788.271 710.582C787.007 709.903 786.902 709.983 786.149 708.789C785.821 709.151 785.973 710.161 786.134 710.56L786.223 710.378C786.341 710.564 786.391 727.686 786.255 729.578C785.94 733.94 786.588 738.458 786.854 742.824Z"/><path fill="#5F5D5E" d="M549.864 617.647C548.93 601.479 550.29 583.988 549.741 567.698C549.641 564.728 549.768 562.199 551.978 560.06C553.397 560.205 555.231 560.304 556.559 560.716C554.67 560.921 553.12 560.81 551.777 562.027C549.412 569.629 552.522 615.417 550.782 617.9L549.864 617.647Z"/><path fill="#969596" d="M716.366 597.49C717.789 597.734 718.014 598.237 719.329 598.31C720.616 599.757 726.326 608.984 727.6 611.052C730.474 615.718 735.37 622.666 737.874 627.369C734.806 628.407 735.559 623.183 733.014 623.43C729.525 618.817 719.544 602.89 716.366 597.49Z"/><path fill="#CBC9CC" d="M669.205 693.133C669.914 693.388 675.118 700.062 675.583 701C676.33 704.364 683.155 711.781 682.381 713.748C678.323 707.174 672.759 699.77 669.205 693.133Z"/><path fill="#5F5D5E" d="M550.03 619.281C550.987 622.198 550.872 629.502 549.95 632.305L549.854 632.336L549.784 632.284C549.888 631.952 549.888 631.853 549.691 631.56C549.771 629.627 549.891 624.428 549.521 622.701C549.715 621.529 549.898 620.465 550.03 619.281Z"/><path fill="#5F5D5E" d="M552.131 564.75C553 566.225 552.8 607.642 552.131 611.186C550.767 607.052 552.131 572.175 552.131 564.75Z"/><path fill="#727172" d="M553.132 566.356C553.991 567.771 553.927 567.73 553.829 569.367C552.749 569.398 553.113 568.191 553.154 567.275L553.132 566.356Z"/><defs><linearGradient id="gradient_4" gradientUnits="userSpaceOnUse" x1="409.83087" y1="585.51715" x2="329.62482" y2="585.98309"><stop offset="0" stop-color="#575657"/><stop offset="1" stop-color="#F1F0F1"/></linearGradient></defs><path fill="url(#gradient_4)" d="M408.335 441.553C409.654 443.777 409.027 449.821 408.99 452.709L408.602 486.472C408.48 502.678 409.047 519.011 408.653 535.207C408.52 540.666 408.767 548.563 408.331 553.807C408.042 569.224 408.283 584.79 408.253 600.215C408.238 607.817 414.427 604.614 408.448 615.41L408.948 616.031C395.084 638.027 380.86 659.793 366.281 681.321C362.519 686.852 358.521 691.277 354.645 697.131L333.491 729.406C330.649 733.694 326.327 740.839 322.994 744.397C311.396 744.679 299.804 744.207 288.23 744.39C276.776 744.57 265.213 745.574 253.745 745.077L235.254 745.161C229.032 745.431 223.513 745.299 217.323 744.713C216.867 744.67 213.585 745.458 212.364 745.534L212.062 745.042C213.338 741.615 217.052 736.382 219.058 733.057C225.876 721.757 233.438 710.968 240.584 699.886L319.486 577.937L351.981 527.253C356.434 520.204 361.904 509.386 367 503.316C367.628 501.372 374.86 490.441 376.579 487.812C385.178 474.656 393.456 460.293 402.342 447.43C402.495 452.116 400.911 450.013 400.992 452.967L401.816 452.934C402.872 451.584 406.723 444.116 408.335 441.553Z"/><path fill="#EFEFEF" d="M329.166 565.533C330.144 564.769 330.593 564.378 331.684 563.766C332.407 564.239 333.014 564.628 332.942 565.722C332.112 578.344 331.782 592.046 332.301 604.702C333.255 628.009 333.029 651.219 333.519 674.504C333.851 690.233 335.368 706.098 335.27 721.883C335.287 722.916 331.812 727.362 331.21 730.46C328.661 734.892 325.837 739.243 323.099 743.567C313.273 743.567 303.18 743.684 293.38 743.379L293.191 742.5C291.07 741.963 287.447 742.212 285.136 742.254C285.858 728.464 285.119 709.509 285.227 695.252C285.38 675.025 285.785 654.692 285.745 634.518C287.795 631.502 291.616 625.989 292.265 622.539C293.641 618.218 325.183 570.576 329.166 565.533Z"/><path fill="#505152" d="M393.794 633.664C400.597 627.021 400.783 615.785 402.137 614.251L402.764 615.228C403.344 613.204 401.717 610.222 401.983 608.127C402.284 604.282 404.086 597.422 403.334 593.662C401.492 584.445 403.729 576.385 403.672 567.585C403.543 547.938 403.129 528.162 403.89 508.517C404.011 505.404 402.395 500.778 402.508 497.524C402.606 492.84 404.073 488.277 403.356 483.617C403.195 483.403 402.259 482.242 402.252 482.154C401.801 476.892 402.018 452.275 405.828 450.111C406.842 451.305 406.988 452.026 406.953 453.702C406.268 486.771 407.987 519.893 408.079 552.947C408.163 553.234 408.247 553.521 408.331 553.807C408.042 569.224 408.283 584.79 408.253 600.215C408.238 607.817 414.427 604.614 408.448 615.41L408.948 616.031C395.084 638.027 380.86 659.793 366.281 681.321C362.519 686.852 358.521 691.277 354.645 697.131L333.491 729.406C330.649 733.694 326.327 740.839 322.994 744.397C311.396 744.679 299.804 744.207 288.23 744.39C276.776 744.57 265.213 745.574 253.745 745.077L235.254 745.161C229.032 745.431 223.513 745.299 217.323 744.713C216.867 744.67 213.585 745.458 212.364 745.534L212.062 745.042C213.338 741.615 217.052 736.382 219.058 733.057C225.876 721.757 233.438 710.968 240.584 699.886L319.486 577.937L351.981 527.253C356.434 520.204 361.904 509.386 367 503.316L368.645 504.335L346.102 539.321C340.697 547.537 333.971 557.143 329.166 565.533C325.183 570.576 293.641 618.218 292.265 622.539C291.616 625.989 287.795 631.502 285.745 634.518C285.785 654.692 285.38 675.025 285.227 695.252C285.119 709.509 285.858 728.464 285.136 742.254C287.447 742.212 291.07 741.963 293.191 742.5L293.38 743.379C303.18 743.684 313.273 743.567 323.099 743.567C325.837 739.243 328.661 734.892 331.21 730.46C334.396 726.431 341.335 715.199 344.615 710.235C354.625 695.031 364.524 679.753 374.311 664.404C376.71 661.812 391.461 637.647 393.794 633.664Z"/><defs><linearGradient id="gradient_5" gradientUnits="userSpaceOnUse" x1="271.14566" y1="688.57904" x2="285.3107" y2="688.49677"><stop offset="0" stop-color="#A2A1A1"/><stop offset="1" stop-color="#D2D1D2"/></linearGradient></defs><path fill="url(#gradient_5)" d="M269.762 658.245C277.279 647.132 284.473 633.349 292.265 622.539C291.616 625.989 287.795 631.502 285.745 634.518C285.785 654.692 285.38 675.025 285.227 695.252C285.119 709.509 285.858 728.464 285.136 742.254C287.447 742.212 291.07 741.963 293.191 742.5L293.38 743.379C289.445 743.611 282.781 743.406 278.656 743.403C276.666 743.182 273.82 743.146 271.754 743.054C271.672 737.397 272.491 731.736 272.127 726.049C270.765 704.735 273.002 681.461 270.516 660.309L270.387 661.127C269.907 660.385 269.894 659.22 269.762 658.245Z"/><path fill="#090909" d="M235.254 745.161C235.295 734.352 233.027 718.567 236.213 708.903C237.073 706.294 251.833 684.161 253.253 683.327C254.004 684.981 253.238 687.516 253.408 689.569C254.721 705.438 254.238 721.435 254.108 737.342C254.087 739.924 253.689 742.496 253.745 745.077L235.254 745.161Z"/><path fill="#969596" d="M264.273 667.223C266.122 664.308 267.955 661.203 269.762 658.245C269.894 659.22 269.907 660.385 270.387 661.127L270.516 660.309C273.002 681.461 270.765 704.735 272.127 726.049C272.491 731.736 271.672 737.397 271.754 743.054C273.82 743.146 276.666 743.182 278.656 743.403C275.381 743.482 266.951 743.843 264.015 742.872C265.274 733.391 264.641 728.101 264.654 718.698L264.273 667.223Z"/><path fill="#969596" d="M222.959 732.719C225.287 733.337 224.242 740.364 224.245 742.852C221.914 743.03 219.78 743.033 217.451 743.057C215.077 742.373 221.968 734.111 222.959 732.719Z"/><defs><linearGradient id="gradient_6" gradientUnits="userSpaceOnUse" x1="442.40204" y1="599.66351" x2="507.13852" y2="597.62317"><stop offset="0" stop-color="#666566"/><stop offset="1" stop-color="white"/></linearGradient></defs><path fill="url(#gradient_6)" d="M517.242 557.515C524.703 557.248 535.756 557.121 543.268 557.48C543.245 557.718 543.226 557.956 543.2 558.194C543.052 559.564 542.588 560.881 542.19 562.193C541.136 565.664 541.298 628.219 541.853 634.775C541.956 636.001 542.227 636.944 542.679 638.08C532.777 638.532 521.483 638.738 511.588 638.245C495.364 637.301 482.66 638.358 467.164 637.936C463.992 638.047 456.224 638.225 453.136 637.972C449.164 638.292 443.581 638.107 439.484 638.088C435.625 638.27 430.126 638.595 426.382 638.37C423.382 638.618 421.54 638.641 418.562 638.595L449.882 588.973C455.855 579.451 462.15 569.313 468.966 560.301C470.292 558.548 470.665 558.431 472.522 558.222C479.268 557.462 489.353 559.716 495.753 559.495C501.982 559.281 510.653 558.047 517.242 557.515Z"/><path fill="#090909" d="M517.242 557.515C524.703 557.248 535.756 557.121 543.268 557.48C543.245 557.718 543.226 557.956 543.2 558.194C543.052 559.564 542.588 560.881 542.19 562.193C541.136 565.664 541.298 628.219 541.853 634.775C541.956 636.001 542.227 636.944 542.679 638.08C532.777 638.532 521.483 638.738 511.588 638.245C513.587 638.312 514.234 638.351 516.187 638.062C516.956 637.556 518.604 636.01 518.605 635.034C518.622 615.634 519.48 596.191 519.254 576.776C519.167 569.254 520.283 564.522 517.242 557.515Z"/><path fill="#5F5D5E" d="M418.562 638.595L449.882 588.973C455.855 579.451 462.15 569.313 468.966 560.301C470.292 558.548 470.665 558.431 472.522 558.222C479.268 557.462 489.353 559.716 495.753 559.495C501.982 559.281 510.653 558.047 517.242 557.515C520.283 564.522 519.167 569.254 519.254 576.776C519.48 596.191 518.622 615.634 518.605 635.034C518.604 636.01 516.956 637.556 516.187 638.062C514.234 638.351 513.587 638.312 511.588 638.245C495.364 637.301 482.66 638.358 467.164 637.936C468.278 636.629 479.562 636.873 481.842 636.641C489.903 636.202 497.585 636.806 506.245 636.154L506.745 560.755C497.176 560.833 486.665 560.44 476.889 560.418C475.081 560.387 473.206 560.109 471.959 561.314C468.126 565.018 465.516 570.456 462.828 575.056C457.509 582.336 450.499 593.349 445.723 601.164L446.134 601.622L448.716 600.695C448.639 602.194 444.2 606.864 443.685 609.623C442.763 614.554 443.717 619.289 443.931 624.303C444.113 628.558 442.579 633.403 445.041 636.807C444.765 636.866 444.649 636.849 444.476 637.009C444.548 638.133 451.744 637.804 453.136 637.972C449.164 638.292 443.581 638.107 439.484 638.088C435.625 638.27 430.126 638.595 426.382 638.37C423.382 638.618 421.54 638.641 418.562 638.595Z"/><path fill="#090909" d="M426.382 638.37C424.827 637.502 421.13 637.992 422.403 636.214C427.919 628.506 432.139 620.116 436.969 612.006L437.449 611.218C438.153 610.047 439.533 608.854 439.376 611.122C437.459 614.736 438.855 633.363 439.484 638.088C435.625 638.27 430.126 638.595 426.382 638.37Z"/><path fill="#505152" d="M445.041 636.807C448.632 635.875 446.292 635.614 449.997 636.062C453.775 636.519 458.873 636.351 462.804 636.349C468.803 636.526 474.804 636.571 480.804 636.484C481.15 636.536 481.496 636.589 481.842 636.641C479.562 636.873 468.278 636.629 467.164 637.936C463.992 638.047 456.224 638.225 453.136 637.972C451.744 637.804 444.548 638.133 444.476 637.009C444.649 636.849 444.765 636.866 445.041 636.807Z"/><path fill="#EFEFEF" fill-opacity="0.61176473" d="M682.038 539.796C682.316 543.642 684.854 544.892 685.752 548.076C686.359 550.231 685.891 554.048 686.301 556.676C686.942 557.07 689.497 557.255 690.536 557.483C688.051 557.588 687.084 557.527 684.561 557.311C683.453 555.639 687.927 552.91 675.745 554.134C672.733 554.436 669.592 554.377 666.529 555.208L666.526 555.266L666.175 555.513C667.006 556.907 677.659 556.328 678.799 556.729L678.788 556.75C677.086 556.916 668.374 556.929 666.691 556.856C661.386 554.959 667.647 554.502 668.203 553.318C667.056 550.709 667.643 553.265 667.561 550.681L667.573 550.696C666.901 549.714 663.989 549.035 664.466 547.05C665.656 542.092 684.519 548.165 679.171 540.388C677.632 540.36 676.293 540.302 674.757 540.204C677.268 540.1 679.52 540.016 682.038 539.796Z"/><path fill="#EFEFEF" fill-opacity="0.53725493" d="M679.171 540.388C684.519 548.165 665.656 542.092 664.466 547.05C663.989 549.035 666.901 549.714 667.573 550.696L667.561 550.681C667.643 553.265 667.056 550.709 668.203 553.318C667.647 554.502 661.386 554.959 666.691 556.856C665.274 556.985 664.643 557.126 663.27 557.45C661.307 557.559 658.095 557.694 656.182 557.477C656.356 557.262 656.667 557.029 656.713 556.741C656.381 556.466 655.833 556.729 655.472 556.524C653.367 555.461 656.789 553.732 654.821 552.204C647.125 546.229 662.07 541.827 666.212 542.746C667.735 543.084 669.514 543.97 671.26 543.182C673.071 542.364 674.111 542.507 675.997 542.725C677.37 542.851 678.556 541.205 679.171 540.388Z"/><defs><linearGradient id="gradient_7" gradientUnits="userSpaceOnUse" x1="748.42792" y1="658.27374" x2="758.07208" y2="648.22626"><stop offset="0" stop-color="#656C62" stop-opacity="0.98823529"/><stop offset="1" stop-color="#8C838F"/></linearGradient></defs><path fill="url(#gradient_7)" d="M733.014 623.43C735.559 623.183 734.806 628.407 737.874 627.369C739.97 629.894 742.284 633.752 744.085 636.589C753.222 650.978 763.005 665.136 771.826 679.706L768.479 678.64C760.375 666.416 752.383 654.118 744.505 641.746C740.87 636.042 736.213 629.17 733.014 623.43Z"/><path fill="#B2B0B1" d="M680.673 557.443C682.085 557.323 683.155 557.298 684.561 557.311C687.084 557.527 688.051 557.588 690.536 557.483C691.295 557.535 692.815 557.575 693.338 558.216C695.227 560.529 705.251 575.632 705.748 577.446C706.156 579.186 708.602 583.045 708.076 583.314C707.174 582.906 705.204 578.589 704.091 577.702L703.195 576.999C702.674 576.618 698.702 570.371 698.031 569.279C696.284 566.414 694.391 563.641 692.361 560.97C689.527 558.717 672.839 559.7 667.954 559.441C673.3 558.231 676.85 559.938 680.673 557.443Z"/><path fill="#EFEFEF" fill-opacity="0.66666669" d="M666.691 556.856C668.374 556.929 677.086 556.916 678.788 556.75L678.799 556.729C677.659 556.328 667.006 556.907 666.175 555.513L666.526 555.266L666.529 555.208C669.592 554.377 672.733 554.436 675.745 554.134C687.927 552.91 683.453 555.639 684.561 557.311C683.155 557.298 682.085 557.323 680.673 557.443C674.93 557.351 668.988 557.565 663.27 557.45C664.643 557.126 665.274 556.985 666.691 556.856Z"/><path fill="#CBC9CC" d="M663.27 557.45C668.988 557.565 674.93 557.351 680.673 557.443C676.85 559.938 673.3 558.231 667.954 559.441C663.263 559.495 658.572 559.512 653.881 559.493C653.592 559.266 653.358 559.14 653.217 558.83C653.754 558.343 656.682 559.275 657.132 558.269L657.131 558.27C656.356 558.054 651.179 558.135 649.248 557.945C652.092 557.432 653.194 557.439 656.182 557.477C658.095 557.694 661.307 557.559 663.27 557.45Z"/><path fill="#969596" fill-opacity="0.98823529" d="M703.195 576.999L704.091 577.702C705.204 578.589 707.174 582.906 708.076 583.314C708.602 583.045 706.156 579.186 705.748 577.446C707.766 579.748 715.439 591.984 717.267 594.966C714.955 596.044 716.211 594.273 714.488 594.427C712.376 591.722 704.722 580.132 703.195 576.999Z"/><defs><linearGradient id="gradient_8" gradientUnits="userSpaceOnUse" x1="808.49915" y1="745.20819" x2="810.03687" y2="740.86731"><stop offset="0" stop-color="#7B7979" stop-opacity="0.98039216"/><stop offset="1" stop-color="#666467"/></linearGradient></defs><path fill="url(#gradient_8)" d="M808.938 742.577C808.956 740.928 808.68 740.912 810.069 740.015C813.421 744.788 814.786 745.797 809.009 745.559L808.506 745.47C805.993 745.045 805.374 744.793 803.327 743.544L802.897 743.285C805.079 743.187 807.024 743.4 808.938 742.577Z"/><path fill="#D6D5D6" fill-opacity="0.98823529" d="M638.278 559.15C642.208 558.916 645.676 557.887 649.248 557.945C651.179 558.135 656.356 558.054 657.131 558.27L657.132 558.269C656.682 559.275 653.754 558.343 653.217 558.83C653.358 559.14 653.592 559.266 653.881 559.493C649.042 559.472 642.995 559.762 638.278 559.15Z"/><path fill="#969596" fill-opacity="0.97254902" d="M714.488 594.427C716.211 594.273 714.955 596.044 717.267 594.966C718.138 595.988 718.696 597.114 719.329 598.31C718.014 598.237 717.789 597.734 716.366 597.49C715.655 596.674 714.885 595.418 714.488 594.427Z"/></svg>